HIERARCHY
ROOT Hips
{
	OFFSET 0.00000 0.00000 0.00000
	CHANNELS 6 Xposition Yposition Zposition Zrotation Yrotation Xrotation 
	JOINT LHipJoint
	{
		OFFSET 0 0 0
		CHANNELS 3 Zrotation Yrotation Xrotation
		JOINT LeftHip
		{
			OFFSET 1.41261 -1.82971 0.84908
			CHANNELS 3 Zrotation Yrotation Xrotation
			JOINT LeftKnee
			{
				OFFSET 2.52554 -6.93888 0.00000
				CHANNELS 3 Zrotation Yrotation Xrotation
				JOINT LeftAnkle
				{
					OFFSET 2.56654 -7.05152 0.00000
					CHANNELS 3 Zrotation Yrotation Xrotation
					JOINT LeftToe
					{
						OFFSET 0.21698 -0.59616 1.85369
						CHANNELS 3 Zrotation Yrotation Xrotation
						End Site
						{
							OFFSET 0.00000 -0.00000 0.97832
						}
					}
				}
			}
		}
	}
	JOINT RHipJoint
	{
		OFFSET 0 0 0
		CHANNELS 3 Zrotation Yrotation Xrotation
		JOINT RightHip
		{
			OFFSET -1.12808 -1.82971 0.84907
			CHANNELS 3 Zrotation Yrotation Xrotation
			JOINT RightKnee
			{
				OFFSET -2.53425 -6.96280 0.00000
				CHANNELS 3 Zrotation Yrotation Xrotation
				JOINT RightAnkle
				{
					OFFSET -2.58413 -7.09983 0.00000
					CHANNELS 3 Zrotation Yrotation Xrotation
					JOINT RightToe
					{
						OFFSET -0.26437 -0.72636 1.92241
						CHANNELS 3 Zrotation Yrotation Xrotation
						End Site
						{
							OFFSET -0.00000 -0.00000 1.02667
						}
					}
				}
			}
		}
	}
	JOINT lowerback
	{
		OFFSET 0 0 0
		CHANNELS 3 Zrotation Yrotation Xrotation
		JOINT Chest
		{
			OFFSET -0.02096 2.02288 -0.14752
			CHANNELS 3 Zrotation Yrotation Xrotation
			JOINT Chest2
			{
				OFFSET 0.03477 2.03136 -0.02358
				CHANNELS 3 Zrotation Yrotation Xrotation
				JOINT lowerneck
				{
					OFFSET 0 0 0
					CHANNELS 3 Zrotation Yrotation Xrotation
					JOINT Neck
					{
						OFFSET 0.00174 1.74359 0.19336
						CHANNELS 3 Zrotation Yrotation Xrotation
						JOINT Head
						{
							OFFSET -0.03054 1.76140 -0.17751
							CHANNELS 3 Zrotation Yrotation Xrotation
							End Site
							{
								OFFSET -0.00863 1.77239 -0.08120
							}
						}
					}
				}
				JOINT LeftCollar
				{
					OFFSET 0 0 0
					CHANNELS 3 Zrotation Yrotation Xrotation
					JOINT LeftShoulder
					{
						OFFSET 3.68685 1.32687 -0.67367
CHANNELS 3 Zrotation Xrotation Yrotation
						JOINT LeftElbow
						{
OFFSET 0 -4.764680 -0.000000
CHANNELS 3 Zrotation Xrotation Yrotation
							JOINT LeftWrist
							{
OFFSET 0 -3.527120 -0.000000
CHANNELS 3 Zrotation Xrotation Yrotation
								JOINT lhand
								{
									OFFSET 0 0 0
CHANNELS 3 Zrotation Xrotation Yrotation
									JOINT LFingers
									{
OFFSET 0 -0.859560 -0.000000
CHANNELS 3 Zrotation Xrotation Yrotation
										End Site
										{
OFFSET 0 -0.693000 -0.000000
										}
									}
								}
								JOINT LThumb
								{
OFFSET 0 0.000000 0.000000
CHANNELS 3 Zrotation Xrotation Yrotation
									End Site
									{
OFFSET 0 -0.703580 0.703580
									}
								}
							}
						}
					}
				}
				JOINT RightCollar
				{
					OFFSET 0 0 0
					CHANNELS 3 Zrotation Yrotation Xrotation
					JOINT RightShoulder
					{
						OFFSET -3.31304 1.28268 -0.97357
CHANNELS 3 Zrotation Xrotation Yrotation
						JOINT RightElbow
						{
OFFSET 0 -4.905770 -0.000000
CHANNELS 3 Zrotation Xrotation Yrotation
							JOINT RightWrist
							{
OFFSET 0 -3.426920 0.000000
CHANNELS 3 Zrotation Xrotation Yrotation
								JOINT rhand
								{
									OFFSET 0 0 0
CHANNELS 3 Zrotation Xrotation Yrotation
									JOINT RFingers
									{
OFFSET 0 -0.740960 -0.000000
CHANNELS 3 Zrotation Xrotation Yrotation
										End Site
										{
OFFSET 0 -0.597380 -0.000000
										}
									}
								}
								JOINT RThumb
								{
OFFSET 0 0.000000 0.000000
CHANNELS 3 Zrotation Xrotation Yrotation
									End Site
									{
OFFSET 0 -0.606500 0.606500
									}
								}
							}
						}
					}
				}
			}
		}
	}
}
MOTION
Frames: 4
Frame Time: 0.008333333333333333
1.766300 17.744200 5.712300 -2.877700 -1.422200 0.996300 0.000000 0.000000 0.000000 -14.653600 2.286600 5.777600 0.288900 3.456300 9.552000 0.812900 -0.105500 -17.008100 2.521600 -9.877000 -28.579300 0.000000 0.000000 0.000000 18.962600 0.902100 0.414500 -0.831300 -5.816800 16.253800 -0.536300 -8.019400 -19.018700 -0.442900 -4.270000 11.837600 -1.039100 0.025600 2.588500 1.917300 0.047800 -1.544700 2.554400 0.066200 -3.042600 -1.101600 -0.217300 -12.932600 -1.532800 0.315600 22.440000 -0.302800 -0.114600 9.183800 -0.000000 -0.000000 0.000000 -6.970000 5.744600 -2.120800 17.610800 -27.655900 4.367100 6.281500 6.749400 12.135800 0.000000 0.000000 0.000000 -7.125000 0.000000 0.000000 -14.511800 17.988600 -9.635300 -0.000000 -0.000000 0.000000 1.667100 -2.662200 6.367700 -9.304700 -15.644700 -1.281000 -4.555900 18.142600 37.436200 0.000000 0.000000 0.000000 7.125000 0.000000 -0.000000 36.967900 63.717100 -17.976700
1.766408 17.745278 5.707393 -2.932863 -1.416161 1.008163 0.000000 0.000000 0.000000 -14.591373 2.266648 5.724270 0.291974 3.474526 9.602904 0.814086 -0.118549 -17.015973 2.512217 -9.860068 -28.524676 0.000000 0.000000 0.000000 19.021700 0.907007 0.429005 -0.823427 -5.789731 16.175504 -0.533065 -8.012336 -18.977557 -0.446405 -4.286554 11.884297 -0.988790 0.035899 2.594216 1.929541 0.063653 -1.526043 2.537846 0.072940 -3.027286 -1.126081 -0.208025 -12.975091 -1.527408 0.333880 22.434662 -0.294712 -0.107590 9.190001 0.000000 0.000000 0.000000 -6.981647 5.737752 -2.112981 17.578015 -27.613409 4.351894 6.260955 6.730958 12.215337 0.000000 0.000000 0.000000 -7.125000 0.000000 0.000000 -14.520589 17.912083 -9.666953 0.000000 0.000000 0.000000 1.663595 -2.713157 6.494096 -9.320499 -15.669720 -1.285314 -4.518316 18.023268 37.442833 0.000000 0.000000 0.000000 7.125000 0.000000 0.000000 37.013950 63.712139 -17.998000
1.766476 17.746341 5.702486 -2.991605 -1.412593 1.016189 0.000000 0.000000 0.000000 -14.525654 2.246634 5.675106 0.295181 3.493490 9.655886 0.815422 -0.126224 -17.027267 2.503823 -9.844917 -28.475811 0.000000 0.000000 0.000000 19.085390 0.917046 0.446971 -0.816096 -5.764521 16.102613 -0.530174 -8.007712 -18.942274 -0.450977 -4.308083 11.945064 -0.934870 0.046662 2.603447 1.942158 0.080268 -1.506483 2.519604 0.079987 -3.013054 -1.150562 -0.198986 -13.012342 -1.516209 0.350214 22.422803 -0.284834 -0.100776 9.192923 0.000000 0.000000 0.000000 -6.990651 5.732842 -2.107532 17.546085 -27.572016 4.337087 6.235797 6.716879 12.296498 0.000000 0.000000 0.000000 -7.125000 0.000000 0.000000 -14.532423 17.834161 -9.701258 0.000000 0.000000 0.000000 1.660961 -2.759713 6.633250 -9.340152 -15.700837 -1.290663 -4.483140 17.889287 37.450603 0.000000 0.000000 0.000000 7.125000 0.000000 0.000000 37.059067 63.708724 -18.020100
1.766315 17.747312 5.697579 -3.071357 -1.423539 1.001684 0.000000 0.000000 0.000000 -14.439430 2.226251 5.650410 0.299171 3.516784 9.721079 0.817633 -0.102336 -17.058650 2.501235 -9.840226 -28.460766 0.000000 0.000000 0.000000 19.176035 0.957218 0.485256 -0.811944 -5.750231 16.061470 -0.529312 -8.017419 -18.941412 -0.461816 -4.358825 12.088445 -0.859755 0.060142 2.633320 1.956987 0.101352 -1.481624 2.491456 0.088830 -3.005182 -1.175043 -0.191329 -13.018812 -1.470914 0.355121 22.372654 -0.264451 -0.095114 9.176584 0.000000 0.000000 0.000000 -6.984126 5.739312 -2.115998 17.519177 -27.537073 4.324631 6.183545 6.728419 12.387196 0.000000 0.000000 0.000000 -7.125000 0.000000 0.000000 -14.562135 17.747992 -9.751137 0.000000 0.000000 0.000000 1.663441 -2.780420 6.847325 -9.382427 -15.767756 -1.302095 -4.462110 17.669280 37.465054 0.000000 0.000000 0.000000 7.125000 0.000000 0.000000 37.098701 63.714386 -18.046899
